<svg id="Layer_1" data-name="Layer 1" xmlns="http://www.w3.org/2000/svg" viewBox="0 0 270.61 309.27"><defs><style>.cls-1{fill:#fff}</style></defs><path class="cls-1" d="M135.71 140.3h-10.05v47.9h11.15c14.23 0 20.73-10.43 20.73-23.61 0-14.09-6.61-24.29-21.83-24.29zm-66.21-.75H59.06v23.18H69.5c6.45 0 10.53-5 10.55-11.58s-4.05-11.6-10.55-11.6z"/><path class="cls-1" d="M183.56 0H19.33A19.33 19.33 0 000 19.33v270.61a19.33 19.33 0 0019.33 19.33h232a19.33 19.33 0 0019.33-19.33V86.71zM70.42 177.14H59.05v17.94c0 5.48-3.27 8.52-7.67 8.52s-7.68-3-7.68-8.52v-61.44c0-5.14 2.86-8.52 8-8.52h18.1c15 0 26.21 10.49 26.21 26.12-.01 15.97-11.57 25.9-25.59 25.9zm66.63 26.24h-19.2c-3.63 0-8.7-2-8.7-8.25v-61.54a8.09 8.09 0 018.49-8.47h18.29c24.7 0 38.83 15.83 38.84 40.23 0 23.08-15 38.03-37.72 38.03zm83.39-63.18h-17.95v22.92h15.12c4.69 0 7 3.71 7 7.45s-2.35 7.65-7 7.65h-15.12v16.86c0 5.48-3.13 8.52-7.33 8.52s-7.34-3-7.34-8.52v-61.44c0-4.47 2.73-8.52 7.62-8.52h25c4.3 0 6.54 3.71 6.54 7.55s-2.15 7.53-6.54 7.53z"/><path d="M270.33 87H203a19.34 19.34 0 01-19.33-19.33V.19z" fill="#d8d8d8"/></svg>