<svg xmlns="http://www.w3.org/2000/svg" xmlns:xlink="http://www.w3.org/1999/xlink"><defs><style/></defs><symbol id="icon-arrow-up" viewBox="0 0 9 5"><path d="M-.006 4.172l.85.794L4.5 1.552 8.189 5l.816-.762L4.466 0z"/></symbol><symbol id="icon-circle" viewBox="0 0 73.438 73.375"><circle cx="36.719" cy="36.625" r="36"/></symbol><symbol id="icon-close-large" viewBox="0 0 78.219 78.219"><path class="cls-1" d="M.557 74.803L74.803.557a2 2 0 012.828 2.828L3.385 77.631a2 2 0 01-2.828-2.828zm77.074 0L3.385.557A2 2 0 00.557 3.385l74.246 74.246a2 2 0 002.828-2.828zm-77.074 0L74.803.557a2 2 0 012.828 2.828L3.385 77.631a2 2 0 01-2.828-2.828z"/></symbol><symbol id="icon-close" viewBox="0 0 18.06 18.063"><path d="M.08 16.293l1.7 1.7 7.3-7.3 7.36 7.366 1.63-1.629-7.36-7.366 7.29-7.3-1.69-1.7-7.3 7.3L1.64-.002.01 1.627l7.37 7.366z"/></symbol></svg>